<svg xmlns="http://www.w3.org/2000/svg" width="96" height="95" viewBox="0 0 96 95" fill="none"><g clip-path="url(#clip0_315_70)"><path d="M95.2129 16.28V94.408H17.0789V77.078H64.2789L64.5789 76.44C62.4529 74.38 60.2849 72.359 58.2139 70.24C56.8819 68.88 55.7709 67.301 54.4199 65.962C51.2199 62.789 47.8849 59.754 44.7049 56.562C41.8689 53.717 39.2399 50.662 36.3919 47.834C33.0249 44.487 29.4629 41.334 26.0919 37.991C23.2979 35.216 20.7319 32.212 17.9369 29.439C14.5109 26.039 10.9319 22.796 7.45889 19.444C5.41489 17.471 3.48889 15.375 1.42789 13.421C0.311887 12.363 0.0968938 11.584 1.35989 10.427C4.77289 7.30002 8.05991 4.03303 11.4789 0.912031C11.768 0.766712 12.0893 0.697575 12.4125 0.711225C12.7358 0.724875 13.0501 0.820832 13.3259 0.990003C17.5459 5.03 21.6689 9.17102 25.8499 13.251C28.9589 16.284 32.1769 19.208 35.2349 22.291C38.2349 25.318 41.0219 28.562 44.0419 31.571C47.3419 34.863 50.8679 37.934 54.1849 41.213C57.1559 44.151 59.9169 47.302 62.8789 50.249C66.1289 53.482 69.5439 56.549 72.8069 59.77C74.2909 61.235 75.5819 62.896 76.9609 64.47L77.6829 64.143V16.28H95.2129Z" stroke="white"></path></g><defs><clipPath id="clip0_315_70"><rect width="95.713" height="94.908" fill="white"></rect></clipPath></defs></svg>