<svg width="72" height="72" viewBox="0 0 72 72" fill="none" xmlns="http://www.w3.org/2000/svg">
<path d="M33.4023 17.8764C33.4746 16.513 34.6025 15.4489 35.9679 15.4489C37.4855 15.4489 38.6783 16.7465 38.5569 18.2592C38.1713 23.0664 37.4705 33.0324 37.645 40.1012C37.7483 44.2866 38.2215 50.014 38.5279 53.3909C38.6649 54.9003 37.4789 56.2074 35.9633 56.2074C34.6026 56.2074 33.481 55.1471 33.4177 53.7878C33.1993 49.1022 32.7657 38.6028 32.8789 31.2263C32.9438 26.9916 33.2296 21.1318 33.4023 17.8764Z" fill="#110725"/>
<path d="M53.7794 33.4025C55.1429 33.4748 56.207 34.6028 56.207 35.9681C56.207 37.4858 54.9094 38.6785 53.3966 38.5572C48.5895 38.1715 38.6235 37.4708 31.5547 37.6452C27.3693 37.7485 21.6419 38.2218 18.265 38.5282C16.7556 38.6651 15.4485 37.4792 15.4485 35.9636C15.4485 34.6028 16.5088 33.4813 17.8681 33.4179C22.5537 33.1996 33.0531 32.766 40.4295 32.8791C44.6643 32.944 50.5241 33.2298 53.7794 33.4025Z" fill="#110725"/>
<circle cx="35.6637" cy="35.6637" r="33.0341" stroke="#110725" stroke-width="5.25916"/>
</svg>
