<svg width="20" height="20" viewBox="0 0 20 20" fill="none" xmlns="http://www.w3.org/2000/svg">
<g clip-path="url(#clip0_993_152)">
<path d="M1.95496 0C0.875156 0 0 0.875 0 1.95496C0 3.03488 0.875156 3.90988 1.95496 3.90988C3.03473 3.90988 3.90988 3.03488 3.90988 1.95496C3.90988 0.875 3.03473 0 1.95496 0Z" fill="white"/>
<path d="M9.99988 0C8.92012 0 8.04492 0.875 8.04492 1.95496C8.04492 3.03488 8.92008 3.90988 9.99988 3.90988C11.0796 3.90988 11.9548 3.03488 11.9548 1.95496C11.9548 0.875 11.0796 0 9.99988 0Z" fill="white"/>
<path d="M18.0453 3.90988C19.1249 3.90988 20.0002 3.03488 20.0002 1.95496C20.0002 0.875 19.1249 0 18.0453 0C16.9656 0 16.0903 0.875 16.0903 1.95496C16.0903 3.03488 16.9656 3.90988 18.0453 3.90988Z" fill="white"/>
<path d="M1.95496 8.04492C0.875156 8.04492 0 8.91992 0 9.99988C0 11.0798 0.875156 11.9548 1.95496 11.9548C3.03473 11.9548 3.90988 11.0798 3.90988 9.99988C3.90988 8.91992 3.03473 8.04492 1.95496 8.04492Z" fill="white"/>
<path d="M9.99988 8.04492C8.92012 8.04492 8.04492 8.91992 8.04492 9.99988C8.04492 11.0798 8.92008 11.9548 9.99988 11.9548C11.0796 11.9548 11.9548 11.0798 11.9548 9.99988C11.9548 8.91992 11.0796 8.04492 9.99988 8.04492Z" fill="white"/>
<path d="M18.0453 8.04492C16.9656 8.04492 16.0903 8.91992 16.0903 9.99988C16.0903 11.0798 16.9656 11.9548 18.0453 11.9548C19.1249 11.9548 20.0002 11.0798 20.0002 9.99988C20.0002 8.91992 19.1249 8.04492 18.0453 8.04492Z" fill="white"/>
<path d="M1.95496 16.0898C0.875156 16.0898 0 16.9648 0 18.0448C0 19.1247 0.875156 19.9997 1.95496 19.9997C3.03473 19.9997 3.90988 19.1247 3.90988 18.0448C3.90988 16.9648 3.03473 16.0898 1.95496 16.0898Z" fill="white"/>
<path d="M9.99988 16.0898C8.92012 16.0898 8.04492 16.9648 8.04492 18.0448C8.04492 19.1247 8.92012 19.9997 9.99988 19.9997C11.0796 19.9997 11.9548 19.1247 11.9548 18.0448C11.9548 16.9648 11.0796 16.0898 9.99988 16.0898Z" fill="white"/>
<path d="M18.0453 16.0898C16.9656 16.0898 16.0903 16.9648 16.0903 18.0448C16.0903 19.1247 16.9656 19.9997 18.0453 19.9997C19.1249 19.9997 20.0002 19.1247 20.0002 18.0448C20.0002 16.9648 19.1249 16.0898 18.0453 16.0898Z" fill="white"/>
</g>
<defs>
<clipPath id="clip0_993_152">
<rect width="20" height="20" fill="white"/>
</clipPath>
</defs>
</svg>
