<svg width="1150" height="1561" viewBox="0 0 1150 1561" fill="none" xmlns="http://www.w3.org/2000/svg">
<path d="M241 174.737C1183.27 380.395 1306.42 507.527 930 617.237" stroke="#CDE648" stroke-width="3"/>
<path d="M933.5 616.237C50.1506 861.707 -125 940.237 109.5 1018.74" stroke="#CDE648" stroke-width="3"/>
<path d="M842.129 1552.46L859.419 1551.43L849.89 1536.97L842.129 1552.46ZM854.241 1546.27C886.824 1523.58 905.197 1498.85 901.46 1469.33C897.75 1440.01 872.269 1406.62 819.16 1366.4C712.825 1285.87 494.217 1176.83 110.075 1017.35L108.925 1020.12C493.119 1179.62 711.369 1288.53 817.349 1368.79C870.399 1408.97 894.94 1441.7 898.484 1469.7C902.001 1497.5 884.859 1521.29 852.527 1543.81L854.241 1546.27Z" fill="#CDE648"/>
<circle cx="69.5" cy="1009.5" r="52.5" fill="#6435E3" stroke="#CBC9D1" stroke-width="20"/>
<circle cx="666.5" cy="1279.5" r="52.5" fill="#6435E3" stroke="#CBC9D1" stroke-width="20"/>
<circle cx="1040.5" cy="555.737" r="52.5" fill="#6435E3" stroke="#CBC9D1" stroke-width="20"/>
<circle cx="624.5" cy="262.5" r="52.5" fill="#6435E3" stroke="#CBC9D1" stroke-width="20"/>
</svg>
