<svg width="198" height="199" viewBox="0 0 198 199" fill="none" xmlns="http://www.w3.org/2000/svg">
<path d="M87.711 31.8079C87.249 31.8846 86.8315 31.7896 86.4586 31.5229C86.0856 31.2561 85.8608 30.8918 85.784 30.4298C85.7073 29.9678 85.8023 29.5503 86.069 29.1774C86.3358 28.8044 86.7001 28.5796 87.1621 28.5029C87.6063 28.4291 88.006 28.527 88.3612 28.7967C88.7342 29.0634 88.959 29.4278 89.0357 29.8898C89.1124 30.3518 89.0174 30.7692 88.7507 31.1422C88.5018 31.5122 88.1552 31.7341 87.711 31.8079Z" fill="white"/>
<path d="M64.9011 22.8629C66.5413 22.1185 68.0969 22.0158 69.5679 22.5548C71.0315 23.0774 72.1875 24.2736 73.0362 26.1434L76.6428 34.0901L74.4285 35.0951L70.9671 27.4682C70.3567 26.1232 69.5552 25.2507 68.5626 24.8506C67.5626 24.4341 66.4803 24.4902 65.3158 25.0187C64.1348 25.5547 63.3592 26.3517 62.9889 27.4099C62.635 28.4606 62.7781 29.6913 63.4183 31.1019L66.8016 38.5565L64.5628 39.5726L58.4438 26.0903L60.6827 25.0741L61.5536 26.9932C61.6838 26.1033 62.0406 25.2985 62.6238 24.5789C63.2235 23.8518 63.9826 23.2798 64.9011 22.8629Z" fill="white"/>
<path d="M56.4547 45.7376C55.366 46.5969 54.181 47.1306 52.8996 47.3387C51.6325 47.5358 50.3873 47.3827 49.1641 46.8795C47.9439 46.351 46.8595 45.4859 45.911 44.2841C44.9736 43.0964 44.4023 41.8493 44.1972 40.5427C43.995 39.2107 44.1495 37.9529 44.6609 36.7692C45.1611 35.5713 45.9626 34.5371 47.0654 33.6667C48.1682 32.7963 49.3603 32.257 50.6416 32.0488C51.9118 31.8265 53.1585 31.967 54.3817 32.4701C55.619 32.9621 56.7119 33.809 57.6605 35.0109C58.609 36.2127 59.1773 37.4851 59.3653 38.8282C59.5564 40.146 59.3947 41.4094 58.8804 42.6184C58.3661 43.8275 57.5575 44.8672 56.4547 45.7376ZM55.1156 44.041C55.8084 43.4942 56.3304 42.8182 56.6818 42.0132C57.0331 41.2082 57.1359 40.3354 56.9902 39.3948C56.8586 38.4432 56.4246 37.5007 55.6881 36.5676C54.9516 35.6344 54.1428 34.9877 53.2619 34.6274C52.381 34.2672 51.5208 34.1659 50.6815 34.3235C49.831 34.467 49.0594 34.8121 48.3666 35.3589C47.6596 35.9169 47.1375 36.5928 46.8004 37.3867C46.4662 38.1552 46.379 39.0042 46.5388 39.9336C46.6987 40.863 47.1469 41.7942 47.8834 42.7274C48.631 43.6747 49.4312 44.3396 50.2838 44.7222C51.1506 45.0936 52.0022 45.2132 52.8386 45.0808C53.6638 44.9344 54.4228 44.5877 55.1156 44.041Z" fill="white"/>
<path d="M35.2572 41.7571C34.943 42.1045 34.557 42.2896 34.0991 42.3127C33.6412 42.3357 33.2385 42.1902 32.8912 41.876C32.5438 41.5619 32.3586 41.1759 32.3356 40.718C32.3126 40.2601 32.4581 39.8574 32.7722 39.5101C33.0742 39.1761 33.4482 39.0042 33.894 38.9946C34.352 38.9715 34.7546 39.1171 35.102 39.4312C35.4493 39.7453 35.6345 40.1313 35.6575 40.5892C35.6926 41.0338 35.5592 41.4231 35.2572 41.7571ZM37.838 42.4881L48.8199 52.4186L47.1709 54.2423L36.189 44.3118L37.838 42.4881Z" fill="white"/>
<path d="M32.7469 51.9165L39.8495 56.9872C40.4359 57.4058 40.9427 57.5794 41.3698 57.5081C41.7823 57.4264 42.2083 57.0776 42.6478 56.4619L43.6996 54.9886L45.3928 56.1974L44.1056 58.0006C43.3102 59.1147 42.4571 59.7672 41.5463 59.9579C40.6355 60.1487 39.5937 59.8255 38.421 58.9882L31.3184 53.9176L30.2038 55.4788L28.5545 54.3015L29.6691 52.7402L26.6346 50.5738L28.0631 48.5728L31.0977 50.7392L33.3426 47.5947L34.9918 48.772L32.7469 51.9165Z" fill="white"/>
<path d="M26.2677 75.3546C24.8883 74.733 23.8071 73.9099 23.0241 72.8854C22.2247 71.8534 21.756 70.7235 21.6178 69.4956C21.487 68.2513 21.6918 67.0298 22.232 65.831C22.7648 64.6486 23.4818 63.737 24.3831 63.096C25.2844 62.455 26.2171 62.095 27.1813 62.0158L24.7181 60.9058L25.7393 58.6396L39.238 64.7224L38.2168 66.9886L35.7043 65.8564C36.2927 66.655 36.6499 67.6161 36.7758 68.7397C36.8926 69.8394 36.6884 70.9723 36.163 72.1382C35.6228 73.337 34.8388 74.2877 33.811 74.9902C32.7832 75.6926 31.6098 76.0825 30.2908 76.1599C28.9718 76.2372 27.6308 75.9688 26.2677 75.3546ZM31.4428 63.9361C30.4246 63.4773 29.4454 63.283 28.505 63.3531C27.5646 63.4233 26.7382 63.7226 26.0259 64.2512C25.3045 64.7559 24.7551 65.427 24.3777 66.2645C24.0003 67.102 23.8533 67.9544 23.9366 68.8217C24.02 69.6891 24.3468 70.4982 24.9172 71.2491C25.4876 72.0001 26.2819 72.605 27.3001 73.0638C28.3346 73.53 29.3303 73.7317 30.2872 73.6689C31.2276 73.5988 32.0584 73.3114 32.7798 72.8067C33.4847 72.2945 34.0259 71.6197 34.4033 70.7822C34.7807 69.9447 34.9277 69.0923 34.8444 68.225C34.752 67.3338 34.4207 66.5128 33.8503 65.7618C33.2634 65.0035 32.4609 64.3949 31.4428 63.9361Z" fill="white"/>
<path d="M29.2836 85.9811L17.8363 79.1096L18.3298 76.5357L31.7771 85.0286L31.2378 87.8413L15.6029 90.7584L16.1015 88.158L29.2836 85.9811Z" fill="white"/>
<path d="M30.5779 102.025C30.6301 103.411 30.3626 104.682 29.7754 105.84C29.1875 106.98 28.3297 107.895 27.2022 108.587C26.056 109.261 24.7179 109.627 23.188 109.684C21.676 109.741 20.3319 109.468 19.1555 108.863C17.9604 108.241 17.0355 107.375 16.3808 106.264C15.7081 105.154 15.3453 103.897 15.2924 102.493C15.2395 101.089 15.5066 99.8078 16.0939 98.6501C16.6631 97.4931 17.5115 96.5689 18.6391 95.8775C19.7659 95.1681 21.0943 94.7846 22.6243 94.7269C24.1542 94.6692 25.517 94.9603 26.7128 95.6002C27.8898 96.2228 28.8151 97.0982 29.4884 98.2264C30.1618 99.3546 30.525 100.621 30.5779 102.025ZM28.418 102.106C28.3847 101.224 28.1465 100.404 27.7034 99.6455C27.2602 98.8872 26.6159 98.2896 25.7702 97.8528C24.924 97.398 23.9068 97.193 22.7189 97.2378C21.5309 97.2826 20.5318 97.5546 19.7215 98.0537C18.9111 98.5529 18.3222 99.188 17.9547 99.9589C17.5692 100.73 17.3931 101.557 17.4263 102.439C17.4603 103.339 17.6985 104.159 18.1409 104.9C18.5647 105.623 19.1991 106.194 20.044 106.612C20.8889 107.031 21.9054 107.218 23.0933 107.173C24.2993 107.128 25.3081 106.874 26.1198 106.41C26.9308 105.929 27.5294 105.312 27.9156 104.558C28.2838 103.805 28.4512 102.988 28.418 102.106Z" fill="white"/>
<path d="M18.281 121.829C17.7837 120.098 17.9088 118.544 18.6564 117.167C19.3868 115.795 20.7387 114.826 22.7123 114.259L31.0998 111.849L31.7713 114.186L23.7213 116.499C22.3017 116.907 21.3217 117.573 20.7812 118.496C20.2234 119.425 20.1211 120.504 20.4742 121.733C20.8324 122.979 21.5079 123.863 22.5008 124.383C23.4887 124.887 24.7271 124.925 26.2159 124.497L34.0841 122.236L34.763 124.599L20.5327 128.688L19.8538 126.325L21.8793 125.743C21.0179 125.484 20.2737 125.014 19.6468 124.332C19.0148 123.633 18.5596 122.798 18.281 121.829Z" fill="white"/>
<path d="M26.0234 140.5C25.1254 138.939 24.8744 137.4 25.2702 135.885C25.6503 134.378 26.7304 133.112 28.5105 132.089L36.0757 127.738L37.2879 129.846L30.0272 134.022C28.7468 134.758 27.9549 135.639 27.6516 136.666C27.3328 137.701 27.4921 138.773 28.1296 139.881C28.7761 141.006 29.6437 141.701 30.7324 141.969C31.8122 142.221 33.0235 141.96 34.3664 141.188L41.4632 137.107L42.6888 139.239L29.8537 146.619L28.6281 144.488L30.4549 143.437C29.5567 143.393 28.7215 143.115 27.9493 142.603C27.1682 142.076 26.5262 141.375 26.0234 140.5Z" fill="white"/>
<path d="M30.6457 154.024L45.1773 142.046L46.7411 143.943L32.2095 155.921L30.6457 154.024Z" fill="white"/>
<path d="M55.0628 151.919C55.4226 152.219 55.6233 152.597 55.6649 153.054C55.7065 153.511 55.5774 153.919 55.2776 154.279C54.9779 154.639 54.5997 154.839 54.1431 154.881C53.6865 154.922 53.2782 154.793 52.9184 154.494C52.5724 154.205 52.3856 153.839 52.3578 153.394C52.3163 152.937 52.4453 152.529 52.7451 152.169C53.0448 151.809 53.423 151.608 53.8797 151.567C54.3224 151.514 54.7168 151.631 55.0628 151.919Z" fill="white"/>
<path d="M56.2688 171.412L73.7334 155.642L76.0228 156.742L70.3046 161.908L69.3475 177.693L66.8876 176.512L67.8918 163.687L58.5582 172.512L56.2688 171.412Z" fill="white"/>
<path d="M82.1036 181.31C80.8537 181.039 79.8214 180.53 79.0067 179.782C78.1744 179.03 77.619 178.191 77.3406 177.264L76.7684 179.905L74.3391 179.378L77.5435 164.591C77.8296 163.271 78.3649 162.162 79.1495 161.263C79.9379 160.346 80.9231 159.712 82.1052 159.36C83.2697 159.004 84.5473 158.977 85.9379 159.278C87.8391 159.69 89.3262 160.482 90.3991 161.655C91.472 162.827 91.955 164.213 91.8482 165.811L89.4717 165.296C89.3984 164.359 89.0052 163.537 88.2923 162.829C87.5832 162.104 86.6477 161.616 85.4859 161.364C84.1656 161.078 83.0022 161.259 81.9955 161.907C80.9713 162.551 80.297 163.622 79.9728 165.118L79.3147 168.154C79.9731 167.412 80.8298 166.861 81.8849 166.5C82.94 166.139 84.0924 166.094 85.3423 166.364C86.6273 166.643 87.7293 167.213 88.6482 168.076C89.5495 168.935 90.1754 170.001 90.5259 171.275C90.8765 172.549 90.8935 173.917 90.5769 175.378C90.2564 176.856 89.6768 178.085 88.8379 179.065C87.9953 180.062 86.9879 180.756 85.8158 181.147C84.626 181.534 83.3886 181.588 82.1036 181.31ZM78.3305 172.696C78.094 173.788 78.1081 174.786 78.3727 175.691C78.6373 176.596 79.1023 177.342 79.7677 177.928C80.4117 178.529 81.1825 178.926 82.0803 179.121C82.9781 179.315 83.8424 179.281 84.6733 179.019C85.5042 178.757 86.2275 178.269 86.843 177.554C87.4586 176.84 87.8846 175.937 88.1212 174.845C88.3615 173.736 88.3513 172.721 88.0905 171.798C87.8258 170.893 87.3715 170.14 86.7276 169.54C86.0798 168.957 85.307 168.568 84.4092 168.374C83.5114 168.179 82.6471 168.213 81.8162 168.475C80.9639 168.751 80.2299 169.247 79.6144 169.961C78.995 170.693 78.567 171.605 78.3305 172.696Z" fill="white"/>
<path d="M101.436 167.668C102.822 167.619 104.094 167.889 105.25 168.479C106.389 169.069 107.302 169.929 107.991 171.058C108.663 172.205 109.026 173.544 109.08 175.074C109.134 176.586 108.857 177.93 108.25 179.105C107.626 180.299 106.758 181.222 105.645 181.874C104.534 182.545 103.276 182.905 101.872 182.955C100.468 183.005 99.1875 182.735 98.0311 182.145C96.8752 181.573 95.9528 180.723 95.2639 179.594C94.5569 178.466 94.1762 177.136 94.1218 175.606C94.0673 174.076 94.3614 172.714 95.0038 171.52C95.6288 170.344 96.5062 169.421 97.6358 168.75C98.7655 168.079 100.032 167.718 101.436 167.668ZM101.513 169.828C100.631 169.86 99.8105 170.096 99.0512 170.538C98.2919 170.979 97.6929 171.622 97.2544 172.467C96.7978 173.312 96.5906 174.329 96.6329 175.517C96.6751 176.705 96.945 177.705 97.4424 178.516C97.9399 179.328 98.5737 179.918 99.3438 180.287C100.115 180.674 100.941 180.852 101.823 180.821C102.723 180.789 103.544 180.552 104.285 180.111C105.009 179.689 105.581 179.056 106.002 178.212C106.422 177.368 106.612 176.352 106.569 175.164C106.526 173.958 106.274 172.948 105.813 172.136C105.333 171.324 104.717 170.724 103.964 170.336C103.212 169.966 102.395 169.797 101.513 169.828Z" fill="white"/>
<path d="M115.575 186.377L111.543 166.794L113.951 166.298L117.983 185.881L115.575 186.377Z" fill="white"/>
<path d="M123.757 163.036C125.05 162.534 126.339 162.371 127.625 162.548C128.894 162.731 130.04 163.243 131.062 164.083C132.073 164.946 132.856 166.091 133.411 167.518C133.959 168.928 134.139 170.288 133.952 171.597C133.755 172.93 133.238 174.087 132.402 175.069C131.573 176.068 130.503 176.821 129.193 177.33C127.884 177.839 126.586 178.005 125.3 177.828C124.02 177.668 122.87 177.168 121.848 176.328C120.809 175.495 120.013 174.365 119.458 172.938C118.904 171.511 118.734 170.127 118.948 168.788C119.152 167.472 119.677 166.312 120.523 165.307C121.369 164.302 122.447 163.545 123.757 163.036ZM124.54 165.051C123.717 165.371 123.02 165.864 122.448 166.53C121.876 167.197 121.521 168.001 121.385 168.943C121.232 169.891 121.37 170.92 121.801 172.028C122.231 173.136 122.814 173.991 123.551 174.594C124.288 175.197 125.08 175.546 125.929 175.642C126.784 175.754 127.623 175.65 128.446 175.331C129.285 175.004 129.982 174.511 130.538 173.851C131.083 173.214 131.415 172.428 131.535 171.493C131.654 170.558 131.499 169.536 131.069 168.428C130.632 167.303 130.062 166.432 129.359 165.817C128.639 165.207 127.86 164.843 127.021 164.725C126.19 164.623 125.362 164.731 124.54 165.051Z" fill="white"/>
<path d="M146.492 168.188C145.018 169.224 143.509 169.613 141.963 169.356C140.428 169.114 139.07 168.153 137.89 166.473L132.872 159.333L134.861 157.935L139.677 164.788C140.526 165.996 141.476 166.705 142.525 166.914C143.585 167.138 144.638 166.882 145.685 166.146C146.746 165.401 147.36 164.474 147.528 163.365C147.68 162.267 147.312 161.084 146.421 159.817L141.714 153.119L143.725 151.705L152.239 163.819L150.227 165.233L149.015 163.508C149.052 164.407 148.851 165.264 148.411 166.079C147.957 166.905 147.317 167.608 146.492 168.188Z" fill="white"/>
<path d="M161.52 154.872C160.787 155.715 159.942 156.316 158.984 156.676C158.039 157.048 157.041 157.111 155.99 156.865C154.927 156.632 153.879 156.067 152.846 155.168L146.263 149.439L147.859 147.605L154.178 153.103C155.292 154.073 156.383 154.533 157.453 154.484C158.535 154.448 159.496 153.947 160.336 152.982C161.187 152.004 161.561 150.956 161.458 149.84C161.343 148.737 160.702 147.677 159.533 146.661L153.357 141.287L154.971 139.432L170.054 152.556L168.44 154.411L162.937 149.622C163.188 150.486 163.192 151.373 162.949 152.284C162.694 153.208 162.218 154.071 161.52 154.872Z" fill="white"/>
<path d="M169.594 128.234C170.952 128.941 171.993 129.828 172.716 130.896C173.456 131.972 173.855 133.134 173.915 134.384C173.967 135.65 173.668 136.906 173.019 138.152C172.178 139.765 171.096 140.887 169.773 141.518C168.441 142.164 166.992 142.293 165.428 141.905L166.651 139.556C167.566 139.749 168.426 139.638 169.231 139.225C170.027 138.827 170.674 138.149 171.174 137.19C171.823 135.944 171.916 134.713 171.453 133.497C171.005 132.289 169.999 131.278 168.434 130.462C166.852 129.638 165.43 129.385 164.168 129.702C162.906 130.02 161.951 130.802 161.301 132.048C160.802 133.006 160.61 133.921 160.724 134.793C160.839 135.665 161.249 136.437 161.955 137.11L160.731 139.458C159.572 138.408 158.86 137.143 158.595 135.664C158.345 134.194 158.633 132.668 159.456 131.086C160.106 129.84 160.963 128.876 162.03 128.193C163.089 127.525 164.27 127.187 165.576 127.176C166.881 127.165 168.221 127.518 169.594 128.234Z" fill="white"/>
<path d="M171.366 125.151C170.912 125.036 170.438 124.888 169.945 124.708L172.853 113.236C171.416 112.965 170.186 113.164 169.161 113.834C168.15 114.525 167.485 115.499 167.166 116.757C166.905 117.787 166.924 118.702 167.223 119.502C167.535 120.325 168.057 120.977 168.789 121.46L168.139 124.027C166.857 123.293 165.925 122.239 165.344 120.866C164.781 119.497 164.716 117.957 165.15 116.245C165.495 114.884 166.11 113.739 166.996 112.811C167.877 111.901 168.953 111.282 170.226 110.954C171.516 110.631 172.903 110.657 174.387 111.033C175.871 111.409 177.096 112.036 178.063 112.913C179.03 113.79 179.676 114.836 179.999 116.051C180.336 117.289 180.327 118.606 179.973 120.003C179.628 121.364 179.026 122.494 178.167 123.391C177.308 124.288 176.283 124.883 175.094 125.177C173.918 125.492 172.675 125.483 171.366 125.151ZM172.487 122.816C173.395 123.046 174.223 123.042 174.971 122.804C175.736 122.571 176.373 122.147 176.882 121.532C177.404 120.94 177.771 120.225 177.983 119.387C178.289 118.182 178.166 117.054 177.614 116.004C177.058 114.971 176.115 114.221 174.784 113.754L172.487 122.816Z" fill="white"/>
<path d="M186.128 108.214L184.129 108.156L184.277 103.025L167.451 102.542L167.522 100.084L184.347 100.568L184.495 95.4092L186.494 95.4666L186.128 108.214Z" fill="white"/>
<path d="M165.798 84.8338C165.698 84.3761 165.773 83.9545 166.021 83.5688C166.269 83.1831 166.621 82.9406 167.079 82.8412C167.537 82.7417 167.958 82.816 168.344 83.064C168.73 83.312 168.972 83.6648 169.072 84.1224C169.167 84.5624 169.089 84.9665 168.837 85.3346C168.589 85.7202 168.237 85.9628 167.779 86.0622C167.321 86.1616 166.9 86.0874 166.514 85.8394C166.132 85.609 165.893 85.2738 165.798 84.8338Z" fill="white"/>
<path d="M173.606 61.6101C174.431 63.2116 174.61 64.7602 174.144 66.256C173.695 67.7436 172.557 68.9573 170.731 69.8972L162.972 73.8917L161.859 71.7298L169.306 67.896C170.619 67.22 171.451 66.3764 171.802 65.3653C172.168 64.3459 172.059 63.2677 171.473 62.1307C170.88 60.9777 170.045 60.2423 168.97 59.9247C167.903 59.6231 166.681 59.8269 165.304 60.5359L158.025 64.2831L156.9 62.0971L170.064 55.32L171.189 57.506L169.316 58.4706C170.211 58.5567 171.032 58.8733 171.78 59.4203C172.536 59.9834 173.144 60.7133 173.606 61.6101Z" fill="white"/>
<path d="M160.93 43.1908C161.777 44.1486 162.308 45.1699 162.523 46.2549C162.749 47.3534 162.7 48.3584 162.377 49.2702L164.4 47.4797L166.047 49.3413L154.716 59.3676C153.705 60.2629 152.616 60.8408 151.452 61.1014C150.274 61.374 149.105 61.3025 147.943 60.8871C146.794 60.4851 145.748 59.7513 144.805 58.6856C143.516 57.2287 142.786 55.7103 142.614 54.1303C142.443 52.5504 142.873 51.1475 143.905 49.9217L145.516 51.7428C145.021 52.542 144.851 53.4376 145.007 54.4297C145.15 55.4337 145.616 56.3809 146.403 57.2712C147.299 58.2829 148.344 58.8252 149.539 58.8982C150.746 58.9847 151.922 58.5207 153.069 57.5061L155.396 55.4471C154.426 55.6558 153.409 55.5937 152.345 55.2607C151.281 54.9277 150.325 54.2824 149.477 53.3246C148.606 52.3399 148.055 51.228 147.824 49.9889C147.606 48.7634 147.732 47.5333 148.203 46.2988C148.674 45.0643 149.469 43.9518 150.589 42.9611C151.722 41.9584 152.916 41.3104 154.172 41.0171C155.441 40.7118 156.664 40.7482 157.84 41.1263C159.029 41.5179 160.058 42.2061 160.93 43.1908ZM158.876 52.3676C159.713 51.6276 160.292 50.8144 160.614 49.9281C160.936 49.0418 161.002 48.1654 160.813 47.2989C160.649 46.4339 160.262 45.6574 159.654 44.9695C159.045 44.2815 158.328 43.7975 157.503 43.5174C156.678 43.2373 155.806 43.2032 154.887 43.415C153.968 43.6269 153.09 44.1028 152.254 44.8428C151.404 45.5948 150.811 46.4199 150.476 47.3181C150.154 48.2044 150.075 49.0801 150.239 49.945C150.416 50.7981 150.81 51.5685 151.418 52.2565C152.027 52.9445 152.744 53.4285 153.569 53.7086C154.419 53.9902 155.304 54.0251 156.223 53.8133C157.156 53.5895 158.04 53.1076 158.876 52.3676Z" fill="white"/>
<path d="M152.357 32.1965C151.991 31.9049 151.782 31.5314 151.73 31.0758C151.678 30.6202 151.798 30.2092 152.09 29.8427C152.381 29.4763 152.755 29.2671 153.21 29.2153C153.666 29.1634 154.077 29.2833 154.443 29.5749C154.796 29.8552 154.991 30.2176 155.029 30.6619C155.08 31.1175 154.961 31.5285 154.669 31.895C154.377 32.2615 154.004 32.4706 153.548 32.5225C153.107 32.5855 152.71 32.4769 152.357 32.1965ZM151.791 34.8184L142.572 46.4044L140.648 44.8736L149.867 33.2875L151.791 34.8184Z" fill="white"/>
<path d="M133.52 40.3818C132.539 39.8111 131.755 39.1358 131.167 38.3559C130.588 37.5604 130.244 36.7356 130.137 35.8812C130.039 35.0114 130.193 34.1736 130.599 33.3681L132.794 34.6454C132.485 35.3199 132.478 36.0136 132.771 36.7264C133.081 37.4482 133.671 38.0628 134.543 38.5701C135.353 39.0412 136.095 39.2336 136.771 39.1473C137.446 39.061 137.942 38.7454 138.259 38.2005C138.585 37.64 138.576 37.0825 138.232 36.528C137.897 35.9579 137.285 35.237 136.396 34.3654C135.591 33.5637 134.958 32.8616 134.496 32.2592C134.058 31.6503 133.766 30.97 133.62 30.2181C133.499 29.4598 133.678 28.668 134.158 27.8429C134.539 27.1891 135.082 26.7029 135.788 26.3845C136.495 26.0661 137.296 25.9596 138.194 26.0649C139.1 26.1547 140.013 26.4669 140.931 27.0014C142.348 27.8257 143.284 28.8496 143.739 30.0731C144.194 31.2965 144.09 32.5491 143.428 33.8308L141.303 32.5942C141.646 31.8976 141.686 31.202 141.423 30.5073C141.176 29.8217 140.64 29.2388 139.815 28.7587C139.052 28.3148 138.35 28.125 137.708 28.1892C137.066 28.2534 136.591 28.5502 136.283 29.0795C136.039 29.4998 135.967 29.9271 136.069 30.3614C136.195 30.7891 136.411 31.2063 136.716 31.6131C137.046 32.0134 137.517 32.5276 138.131 33.1558C138.905 33.9394 139.507 34.6233 139.938 35.2076C140.378 35.7763 140.66 36.4197 140.784 37.1379C140.924 37.8651 140.775 38.6224 140.338 39.4099C139.93 40.1105 139.368 40.6277 138.653 40.9617C137.938 41.2957 137.127 41.4178 136.221 41.328C135.339 41.2317 134.439 40.9163 133.52 40.3818Z" fill="white"/>
<path d="M129.21 28.6397C129.067 29.0856 128.89 29.5489 128.678 30.0296L117.413 26.4071C117.052 27.8236 117.173 29.0641 117.777 30.1286C118.403 31.1814 119.334 31.9063 120.568 32.3033C121.58 32.6286 122.495 32.6673 123.312 32.4193C124.153 32.1598 124.837 31.6797 125.365 30.9791L127.885 31.7896C127.073 33.023 125.962 33.8864 124.555 34.3799C123.153 34.8562 121.612 34.8242 119.932 34.2838C118.594 33.8538 117.49 33.1677 116.62 32.2257C115.767 31.2892 115.217 30.1758 114.97 28.8853C114.728 27.5778 114.841 26.1952 115.31 24.7377C115.779 23.2802 116.481 22.0964 117.417 21.1864C118.353 20.2765 119.437 19.6981 120.671 19.4515C121.927 19.1932 123.241 19.2845 124.613 19.7256C125.95 20.1557 127.04 20.8277 127.881 21.7415C128.722 22.6553 129.252 23.7149 129.47 24.9202C129.71 26.1138 129.624 27.3537 129.21 28.6397ZM126.95 27.3736C127.236 26.4819 127.285 25.6555 127.094 24.8942C126.909 24.1158 126.526 23.4534 125.945 22.907C125.387 22.3491 124.696 21.9377 123.873 21.6731C122.69 21.2926 121.557 21.3446 120.474 21.8289C119.408 22.3187 118.6 23.2131 118.05 24.512L126.95 27.3736Z" fill="white"/>
<path d="M102.543 11.9551C104.593 12.0783 106.341 12.5714 107.787 13.4342C109.251 14.2802 110.337 15.4372 111.042 16.9051C111.766 18.3742 112.07 20.0706 111.954 21.9944C111.839 23.9182 111.334 25.566 110.439 26.9378C109.564 28.2926 108.348 29.3022 106.792 29.9665C105.256 30.6139 103.463 30.876 101.413 30.7528L95.5606 30.4009L96.691 11.6032L102.543 11.9551ZM101.535 28.7301C103.962 28.876 105.852 28.3491 107.205 27.1493C108.56 25.9315 109.307 24.163 109.446 21.8436C109.587 19.5062 109.049 17.6424 107.834 16.252C106.636 14.8628 104.833 14.0957 102.423 13.9508L99.0252 13.7465L98.1365 28.5257L101.535 28.7301Z" fill="white"/>
</svg>
